<svg width="155" height="43" viewBox="0 0 155 43" fill="none" xmlns="http://www.w3.org/2000/svg">
<path fill-rule="evenodd" clip-rule="evenodd" d="M7.1055 1.29629H22.5212C22.9159 1.29629 23.2351 1.45324 23.453 1.75424C23.6711 2.05506 23.727 2.41644 23.6166 2.80882L18.1896 22.0943C18.1267 22.3168 18.196 22.5815 18.372 22.7936C18.5488 23.0059 18.8062 23.1355 19.0546 23.1355H24.461C24.8705 23.1355 25.2004 23.3049 25.4155 23.6255C25.6303 23.946 25.67 24.3283 25.5304 24.7304L19.7825 41.2886C19.5704 41.8998 18.9899 42.3249 18.3679 42.3249H1.72593C1.0058 42.3249 0.495017 41.7338 0.589977 41.0091L5.62445 2.61227C5.71959 1.88754 6.38484 1.29629 7.1055 1.29629Z" fill="#61BF1A"/>
<path fill-rule="evenodd" clip-rule="evenodd" d="M37.824 1.29629H51.7574C52.4781 1.29629 52.988 1.88772 52.8934 2.61227L47.8589 41.0091C47.7641 41.7335 47.0983 42.3249 46.378 42.3249H23.3709C22.8945 42.3249 22.5157 42.0895 22.3283 41.6763C22.1408 41.2634 22.1825 40.7782 22.4836 40.3699L40.1216 16.4568C40.4226 16.0487 40.4645 15.5639 40.2771 15.1505C40.0897 14.7372 39.7111 14.5018 39.2345 14.5018H33.1013C32.6775 14.5018 32.3366 14.319 32.1257 13.979C31.9149 13.6387 31.8928 13.236 32.0626 12.826L36.4404 2.25215C36.6781 1.6781 37.2305 1.29629 37.824 1.29629Z" fill="#0057A6"/>
<path fill-rule="evenodd" clip-rule="evenodd" d="M98.0151 14.9963L96.234 28.495H100.02L100.456 25.1903H104.714C105.408 25.1903 106.072 25.0131 106.675 24.6682C110.198 22.6553 110.977 14.9963 105.86 14.9963H98.0151ZM100.916 21.7057L101.352 18.4029H105.139C106.866 18.4029 106.054 21.6778 104.55 21.6858L100.916 21.7057ZM127.752 28.4949C129.476 28.4565 130.697 26.8713 131.394 25.4535C132.399 23.408 132.882 20.2577 132.375 18.0224C132.044 16.5683 131.234 15.0335 129.552 14.9963H124.185C122.461 15.0343 121.24 16.619 120.543 18.0373C119.537 20.0842 119.054 23.232 119.562 25.4684C119.893 26.9238 120.703 28.4572 122.384 28.4949H127.752ZM125.45 18.4008L127.361 18.4015C127.387 18.4051 127.418 18.4103 127.439 18.4142C129.927 18.8935 129.112 24.6505 126.571 25.116C126.547 25.1203 126.514 25.1253 126.482 25.1292L124.571 25.1287C124.545 25.1249 124.515 25.1199 124.493 25.1158C122.005 24.6356 122.819 18.8804 125.36 18.4141C125.385 18.4096 125.418 18.4047 125.45 18.4008ZM118.796 18.4067L120.728 14.9963H111.106L109.325 28.495H113.111L114.443 18.4067H118.796ZM79.9065 15.0049L79.2574 19.9246H75.4783L76.1275 15.0049H72.3437L70.5639 28.495H74.3473L75.0131 23.4486H78.7924L78.1265 28.495H81.9101L83.6899 15.0049H79.9065ZM96.1364 18.4115L96.5861 15.0049H88.8184C85.5303 15.2088 84.5077 18.7761 84.1141 21.5038C84.1118 21.5206 84.1091 21.5375 84.1066 21.5545C84.1016 21.5892 84.0972 21.6244 84.0925 21.6593C84.0883 21.6894 84.0838 21.7197 84.0797 21.7501L84.0776 21.7672C84.0736 21.7976 84.0697 21.8279 84.0662 21.8584C84.0617 21.8933 84.0569 21.9282 84.0528 21.9632C84.0508 21.98 84.0489 21.9968 84.0467 22.0137C83.7524 24.4751 83.7089 28.286 87.0185 28.495H94.8062L95.2557 25.0882L94.1535 25.0894H88.633C88.3075 25.0773 88.0106 24.9708 87.804 24.701C87.6264 24.35 87.6244 23.9209 87.6417 23.5362L87.6445 23.4716L92.8611 23.4619L94.6204 20.0375L88.0972 20.0282L88.1154 19.9459C88.2056 19.5333 88.324 19.1225 88.5879 18.7804C88.8396 18.5379 89.1527 18.423 89.4992 18.4101L96.1364 18.4115ZM61.4096 20.0377L59.6501 23.4623L66.1735 23.4716L66.1553 23.5536C66.0651 23.9663 65.9467 24.3774 65.6828 24.7193C65.4311 24.9621 65.118 25.0765 64.7715 25.0894L58.1341 25.0882L57.6846 28.495H65.4521C68.7404 28.291 69.763 24.7236 70.1566 21.9961C70.1589 21.9791 70.1616 21.9623 70.1641 21.9454C70.1689 21.9103 70.1734 21.8756 70.1783 21.8406C70.1824 21.8102 70.1869 21.7801 70.1908 21.7496L70.193 21.7326C70.197 21.7021 70.2008 21.6718 70.2045 21.6416C70.209 21.6064 70.2134 21.5717 70.2179 21.5368C70.2199 21.5199 70.2218 21.5029 70.2238 21.4862C70.5181 19.0245 70.5617 15.2136 67.2521 15.0049H59.4645L59.015 18.4115L60.1171 18.4101H65.6376C65.9631 18.4225 66.2599 18.5291 66.4667 18.7985C66.6442 19.1495 66.6463 19.5788 66.629 19.9635L66.6262 20.0282L61.4096 20.0377Z" fill="#61BF1A"/>
<path fill-rule="evenodd" clip-rule="evenodd" d="M130.967 39.7955L130.641 42.2669H135.79C136.959 42.2669 138.058 41.7715 138.785 40.8411C139.348 40.1212 139.682 39.0987 139.347 38.2073C139.223 37.878 139.017 37.5991 138.742 37.3808L138.689 37.3385L138.746 37.3011C139.687 36.6799 140.185 35.5626 139.934 34.4466C139.627 33.086 138.422 32.4179 137.102 32.4179H131.94L131.614 34.8892L136.699 34.8917C137.612 34.9725 137.288 36.1792 136.542 36.1414H134.13L132.987 38.5304H136.191C136.98 38.5304 136.989 39.7197 136.062 39.7904L130.967 39.7955ZM150.69 32.4179L149.39 42.2705H152.153L153.453 32.4179H150.69ZM143.426 37.3731L146.052 37.3878C146.184 37.3884 146.312 37.4269 146.417 37.4985C147.147 37.9993 146.548 39.784 145.52 39.784H143.108L143.426 37.3731ZM140.016 42.2705H145.729C146.509 42.2705 147.223 42.0178 147.824 41.5163C148.441 41.002 148.872 40.2814 149.121 39.5215C149.543 38.2349 149.531 36.3931 148.464 35.4114C148.023 35.0056 147.474 34.8297 146.881 34.8297H143.761L144.08 32.4179H141.316L140.016 42.2705ZM121.544 32.4163H113.488L113.274 34.0802L113.159 34.9103H115.804L114.829 42.2688H117.603L118.57 34.9103H121.214L121.321 34.0668L121.544 32.4163ZM106.26 37.3151L106.578 34.9044H109.341C110.603 34.9044 110.008 37.2946 108.912 37.3006L106.26 37.3151ZM104.143 32.4179L102.843 42.2705H105.606L105.924 39.8585H109.031C109.538 39.8585 110.022 39.7292 110.463 39.4774C113.034 38.0081 113.603 32.4179 109.868 32.4179H104.143ZM69.3314 38.871L71.3877 42.2669H74.67L71.9671 37.9434C71.7346 37.5347 71.7846 37.1599 72.0786 36.8007L75.9085 32.4179H72.6731L69.8119 35.6096C69.0044 36.5103 68.6739 37.7848 69.3314 38.871ZM69.3581 32.4179H66.6098L65.2784 42.2669H68.0265C68.4755 38.9559 68.9132 35.7212 69.3581 32.4179ZM129.7 42.2669L131 32.4179H128.434L127.462 39.7831H127.419C126.285 39.7831 125.894 39.7831 124.76 39.7831C124.206 39.7831 124.1 39.4466 124.174 38.9577L125.037 32.4179H122.429L121.585 38.817C121.499 39.4687 121.463 40.2842 121.681 40.9111C122.046 41.9564 122.996 42.2669 124.014 42.2669H129.7ZM102.69 34.9033L103.019 32.4125H97.339C94.9351 32.5614 94.1871 35.1699 93.8994 37.164C93.8976 37.1766 93.8958 37.1888 93.8941 37.2011C93.8903 37.2266 93.8871 37.2522 93.8837 37.2778C93.8805 37.3 93.8773 37.3221 93.8745 37.3443L93.8729 37.3566C93.8698 37.379 93.8671 37.4011 93.8643 37.4233C93.8611 37.4489 93.8577 37.4745 93.8547 37.5002C93.8531 37.5123 93.8517 37.5247 93.8502 37.5371C93.635 39.3366 93.6033 42.123 96.0231 42.2757H101.717L102.046 39.7849L101.24 39.7858H97.2034C96.9654 39.7768 96.7486 39.6991 96.5973 39.5018C96.4676 39.2452 96.466 38.9315 96.4786 38.65L96.4808 38.6029L100.295 38.5959L101.582 36.0921L96.812 36.0853L96.825 36.0253C96.8911 35.7235 96.9777 35.4231 97.1704 35.1731C97.3545 34.9954 97.5832 34.9117 97.8368 34.9022L102.69 34.9033ZM85.0774 32.4104L83.7768 42.2669H86.5545L87.5262 34.9012H90.2989L89.3271 42.2669H92.1046L93.4052 32.4104C90.382 32.4104 88.1006 32.4104 85.0774 32.4104ZM82.8253 42.2731L82.8247 42.2705H82.8269L82.1935 39.7822L78.0725 39.77C76.7708 39.7668 77.385 35.0208 78.6609 34.9132L82.7745 34.9013L84.1214 32.4129H84.1205L84.1219 32.4104H78.7158C78.6937 32.4104 78.6716 32.4124 78.649 32.4129H78.3516C74.4002 32.4129 73.0932 42.2731 77.0375 42.2731H82.8253ZM58.6014 36.0921L57.3151 38.5961L62.0848 38.6029L62.0717 38.6628C62.0056 38.9645 61.9188 39.2651 61.726 39.5151C61.5422 39.6926 61.3132 39.7763 61.0599 39.7858L56.2066 39.7849L55.8779 42.2757H61.5577C63.9616 42.1264 64.7095 39.5183 64.9971 37.5242C64.9988 37.5118 65.001 37.4993 65.0026 37.4871C65.0063 37.4615 65.0095 37.4358 65.0129 37.4104C65.0159 37.3882 65.0192 37.366 65.0222 37.3436L65.0238 37.3314C65.0268 37.3092 65.0295 37.2869 65.0322 37.2647C65.0357 37.2393 65.0389 37.2137 65.0418 37.188C65.0434 37.1757 65.0448 37.1635 65.0462 37.1513C65.2615 35.3516 65.2933 32.565 62.8734 32.4125H57.1794L56.8507 34.9033L57.6565 34.9022H61.6931C61.9313 34.9114 62.1483 34.9891 62.2992 35.1862C62.4291 35.443 62.4307 35.7569 62.418 36.0381L62.4159 36.0853L58.6014 36.0921Z" fill="#0057A6"/>
<path fill-rule="evenodd" clip-rule="evenodd" d="M98.5376 1.29629H90.4997L90.2592 3.15622L90.1454 3.98451H92.7841L91.837 11.1291H94.6056L95.5438 3.98451H98.1829L98.2893 3.14278L98.5376 1.29629ZM77.5321 7.45945L78.8142 4.96401L74.0623 4.95721L74.0754 4.89736C74.1412 4.59654 74.2276 4.29698 74.4198 4.04776C74.6033 3.87074 74.8314 3.78707 75.084 3.77775L79.9193 3.77883L80.2469 1.29629H74.5878C72.1917 1.445 71.4463 4.04471 71.1597 6.03238C71.1579 6.04475 71.1559 6.05711 71.1541 6.06947C71.1506 6.09491 71.1474 6.12036 71.1438 6.1458C71.1408 6.16783 71.1376 6.18987 71.1347 6.21209L71.1331 6.22445C71.1301 6.24667 71.1274 6.26871 71.1246 6.29092C71.1214 6.31637 71.1181 6.3418 71.1149 6.36724C71.1135 6.37961 71.1121 6.39179 71.1105 6.40398C70.8962 8.19779 70.8644 10.9752 73.2762 11.1273H78.9496L79.2772 8.64481L78.4741 8.64589H74.4528C74.2155 8.63693 73.9992 8.55935 73.8485 8.36263C73.7191 8.10696 73.7175 7.79413 73.7302 7.51356L73.7323 7.46643L77.5321 7.45945ZM67.4466 12.3598L69.9662 12.3478L70.4846 8.41835L69.1855 8.4248L70.1477 1.29629H67.3957L66.3889 8.42999L64.0202 8.42605C63.3929 8.42534 63.0703 7.99265 63.1536 7.38294L63.9851 1.29629H61.2596L60.419 7.4616C60.1527 9.41523 60.6254 11.123 62.8983 11.123H67.6102L67.4537 12.3088L67.4466 12.3598ZM99.4035 1.29629L98.1061 11.1273H100.863L101.181 8.7206H104.28C104.785 8.7206 105.269 8.5916 105.708 8.34041C108.274 6.87447 108.841 1.29629 105.115 1.29629H99.4035ZM101.516 6.18288L101.833 3.77721H104.466C105.724 3.77721 105.132 6.16228 104.036 6.16855L101.516 6.18288ZM86.8888 1.29629L86.4156 4.88178H83.6632L84.1362 1.29629H81.3791L80.082 11.1273H82.839L83.3243 7.44977H86.0767L85.5916 11.1273H88.3486L89.6458 1.29629H86.8888Z" fill="#0057A6"/>
</svg>
